<?xml version="1.0" encoding="utf-8"?>
<!-- Generator: Adobe Illustrator 16.0.3, SVG Export Plug-In . SVG Version: 6.00 Build 0)  -->
<!DOCTYPE svg PUBLIC "-//W3C//DTD SVG 1.1//EN" "http://www.w3.org/Graphics/SVG/1.1/DTD/svg11.dtd">
<svg version="1.1" id="Calque_1" xmlns:ev="http://www.w3.org/2001/xml-events"
	 xmlns="http://www.w3.org/2000/svg" xmlns:xlink="http://www.w3.org/1999/xlink" x="0px" y="0px" width="980px" height="851.5px"
	 viewBox="293.5 0 980 851.5" enable-background="new 293.5 0 980 851.5" xml:space="preserve">
<title></title>
<desc>
	Creator: FreeHEP Graphics2D Driver Producer: org.freehep.graphicsio.svg.SVGGraphics2D Revision Source:  Date: Tuesday, May 26, 2020 at 11:23:24 AM Eastern Daylight Time
	</desc>
<g>
	<g transform="matrix(0.8671492239973475, 0, 0, 0.8671492239973475, 752.4461885362989, 485.38097913474587)">
		<g>
			<path fill="none" stroke="#000000" stroke-width="2" stroke-miterlimit="10" stroke-opacity="0.3922" d="M74.024,301.403
				l62.118-52.108"/>
		</g>
	</g>
	<g transform="matrix(0.8671492239973475, 0, 0, 0.8671492239973475, 752.4461885362989, 485.38097913474587)">
		<g>
			<path fill="none" stroke="#000000" stroke-width="2" stroke-miterlimit="10" stroke-opacity="0.3922" d="M273.768,106.822
				l18.883-21.93"/>
		</g>
	</g>
	<g transform="matrix(0.8671492239973475, 0, 0, 0.8671492239973475, 752.4461885362989, 485.38097913474587)">
		<g>
			<path fill="none" stroke="#000000" stroke-width="2" stroke-miterlimit="10" stroke-opacity="0.3922" d="M55.103,301.403
				L34.299-67.473"/>
		</g>
	</g>
	<g transform="matrix(0.8671492239973475, 0, 0, 0.8671492239973475, 752.4461885362989, 485.38097913474587)">
		<g>
			<path fill="none" stroke="#000000" stroke-width="2" stroke-miterlimit="10" stroke-opacity="0.3922" d="M52.879,331.714
				l-10.691,52.624"/>
		</g>
	</g>
	<g transform="matrix(0.8671492239973475, 0, 0, 0.8671492239973475, 752.4461885362989, 485.38097913474587)">
		<g>
			<path fill="none" stroke="#000000" stroke-width="2" stroke-miterlimit="10" stroke-opacity="0.3922" d="M91.681,312.028
				l109.398-13.873"/>
		</g>
	</g>
	<g transform="matrix(0.8671492239973475, 0, 0, 0.8671492239973475, 752.4461885362989, 485.38097913474587)">
		<g>
			<path fill="none" stroke="#000000" stroke-width="2" stroke-miterlimit="10" stroke-opacity="0.3922" d="M38.227,301.403
				l-322.78-275.9"/>
		</g>
	</g>
	<g transform="matrix(0.8671492239973475, 0, 0, 0.8671492239973475, 752.4461885362989, 485.38097913474587)">
		<g>
			<path fill="none" stroke="#000000" stroke-width="2" stroke-miterlimit="10" stroke-opacity="0.3922" d="M21.392,321.923
				l-125.096,19.415"/>
		</g>
	</g>
	<g transform="matrix(0.8671492239973475, 0, 0, 0.8671492239973475, 752.4461885362989, 485.38097913474587)">
		<g>
			<path fill="none" stroke="#000000" stroke-width="2" stroke-miterlimit="10" stroke-opacity="0.3922" d="M242.487,117.025
				l-44.372-8.397"/>
		</g>
	</g>
	<g transform="matrix(0.8671492239973475, 0, 0, 0.8671492239973475, 752.4461885362989, 485.38097913474587)">
		<g>
			<path fill="none" stroke="#000000" stroke-width="2" stroke-miterlimit="10" stroke-opacity="0.3922" d="M-22.762,26.325
				l47.445-94.166"/>
		</g>
	</g>
	<g transform="matrix(0.8671492239973475, 0, 0, 0.8671492239973475, 752.4461885362989, 485.38097913474587)">
		<g>
			<path fill="none" stroke="#000000" stroke-width="2" stroke-miterlimit="10" stroke-opacity="0.3922" d="M-1.587,34.151
				L145.102-3.165"/>
		</g>
	</g>
	<g transform="matrix(0.8671492239973475, 0, 0, 0.8671492239973475, 752.4461885362989, 485.38097913474587)">
		<g>
			<path fill="none" stroke="#000000" stroke-width="2" stroke-miterlimit="10" stroke-opacity="0.3922" d="M-63.905,37.897
				l-213.832-22.872"/>
		</g>
	</g>
	<g transform="matrix(0.8671492239973475, 0, 0, 0.8671492239973475, 752.4461885362989, 485.38097913474587)">
		<g>
			<path fill="none" stroke="#000000" stroke-width="2" stroke-miterlimit="10" stroke-opacity="0.3922" d="M267.721,135.84
				l9.86,25.367"/>
		</g>
	</g>
	<g transform="matrix(0.8671492239973475, 0, 0, 0.8671492239973475, 752.4461885362989, 485.38097913474587)">
		<g>
			<path fill="none" stroke="#000000" stroke-width="2" stroke-miterlimit="10" stroke-opacity="0.3922" d="M251.495,105.529
				L183.691,6.101"/>
		</g>
	</g>
	<g transform="matrix(0.8671492239973475, 0, 0, 0.8671492239973475, 752.4461885362989, 485.38097913474587)">
		<g>
			<path fill="none" stroke="#000000" stroke-width="2" stroke-miterlimit="10" stroke-opacity="0.3922" d="M-120.785,130.537
				l-114.227,132.86"/>
		</g>
	</g>
	<g transform="matrix(0.8671492239973475, 0, 0, 0.8671492239973475, 752.4461885362989, 485.38097913474587)">
		<g>
			<path fill="none" stroke="#000000" stroke-width="2" stroke-miterlimit="10" stroke-opacity="0.3922" d="M-82.766-39.201
				l-33.478-51.169"/>
		</g>
	</g>
	<g transform="matrix(0.8671492239973475, 0, 0, 0.8671492239973475, 752.4461885362989, 485.38097913474587)">
		<g>
			<path fill="none" stroke="#000000" stroke-width="2" stroke-miterlimit="10" stroke-opacity="0.3922" d="M-108.928,130.555
				l-15.033,196.666"/>
		</g>
	</g>
	<g transform="matrix(0.8671492239973475, 0, 0, 0.8671492239973475, 752.4461885362989, 485.38097913474587)">
		<g>
			<path fill="none" stroke="#000000" stroke-width="2" stroke-miterlimit="10" stroke-opacity="0.3922" d="M-90.534,105.181
				L208.59-72.143"/>
		</g>
	</g>
	<g transform="matrix(0.8671492239973475, 0, 0, 0.8671492239973475, 752.4461885362989, 485.38097913474587)">
		<g>
			<path fill="none" stroke="#000000" stroke-width="2" stroke-miterlimit="10" stroke-opacity="0.3922" d="M-92.458,102.938
				L169.208-110.01"/>
		</g>
	</g>
	<g transform="matrix(0.8671492239973475, 0, 0, 0.8671492239973475, 752.4461885362989, 485.38097913474587)">
		<g>
			<path fill="none" stroke="#000000" stroke-width="2" stroke-miterlimit="10" stroke-opacity="0.3922" d="M-88.986,106.987
				L148.805,0.498"/>
		</g>
	</g>
	<g transform="matrix(0.8671492239973475, 0, 0, 0.8671492239973475, 752.4461885362989, 485.38097913474587)">
		<g>
			<path fill="none" stroke="#000000" stroke-width="2" stroke-miterlimit="10" stroke-opacity="0.3922" d="M-97.099,100.244
				L21.489-68.176"/>
		</g>
	</g>
	<g transform="matrix(0.8671492239973475, 0, 0, 0.8671492239973475, 752.4461885362989, 485.38097913474587)">
		<g>
			<path fill="none" stroke="#000000" stroke-width="2" stroke-miterlimit="10" stroke-opacity="0.3922" d="M-125.585,105.858
				l-155.706-83.391"/>
		</g>
	</g>
	<g transform="matrix(0.8671492239973475, 0, 0, 0.8671492239973475, 752.4461885362989, 485.38097913474587)">
		<g>
			<path fill="none" stroke="#000000" stroke-width="2" stroke-miterlimit="10" stroke-opacity="0.3922" d="M-86.03,110.433
				l341.503-78.015"/>
		</g>
	</g>
	<g transform="matrix(0.8671492239973475, 0, 0, 0.8671492239973475, 752.4461885362989, 485.38097913474587)">
		<g>
			<path fill="none" stroke="#000000" stroke-width="2" stroke-miterlimit="10" stroke-opacity="0.3922" d="M-87.137-34.675
				L-226.98-138.728"/>
		</g>
	</g>
	<g transform="matrix(0.8671492239973475, 0, 0, 0.8671492239973475, 752.4461885362989, 485.38097913474587)">
		<g>
			<path fill="none" stroke="#000000" stroke-width="2" stroke-miterlimit="10" stroke-opacity="0.3922" d="M-51.718-22.85
				l194.46,11.002"/>
		</g>
	</g>
	<g transform="matrix(0.8671492239973475, 0, 0, 0.8671492239973475, 752.4461885362989, 485.38097913474587)">
		<g>
			<path fill="none" stroke="#000000" stroke-width="2" stroke-miterlimit="10" stroke-opacity="0.3922" d="M-57.32-32.959
				L8.636-70.807"/>
		</g>
	</g>
	<g transform="matrix(0.8671492239973475, 0, 0, 0.8671492239973475, 752.4461885362989, 485.38097913474587)">
		<g>
			<path fill="none" stroke="#000000" stroke-width="2" stroke-miterlimit="10" stroke-opacity="0.3922" d="M-71.64-39.201
				l9-112.699"/>
		</g>
	</g>
	<g transform="matrix(0.8671492239973475, 0, 0, 0.8671492239973475, 752.4461885362989, 485.38097913474587)">
		<g>
			<path fill="none" stroke="#000000" stroke-width="2" stroke-miterlimit="10" stroke-opacity="0.3922" d="M-59.747-36.301
				l225.19-210.6"/>
		</g>
	</g>
	<g transform="matrix(0.8671492239973475, 0, 0, 0.8671492239973475, 752.4461885362989, 485.38097913474587)">
		<g>
			<path fill="none" stroke="#000000" stroke-width="2" stroke-miterlimit="10" stroke-opacity="0.3922" d="M-92.536-20.856
				L-277.983,9.2"/>
		</g>
	</g>
	<g transform="matrix(0.8671492239973475, 0, 0, 0.8671492239973475, 752.4461885362989, 485.38097913474587)">
		<g>
			<path fill="none" stroke="#000000" stroke-width="2" stroke-miterlimit="10" stroke-opacity="0.3922" d="M-65.498-8.89
				L3.56,133.458"/>
		</g>
	</g>
	<g transform="matrix(0.8671492239973475, 0, 0, 0.8671492239973475, 752.4461885362989, 485.38097913474587)">
		<g>
			<path fill="none" stroke="#000000" stroke-width="2" stroke-miterlimit="10" stroke-opacity="0.3922" d="M-101.244-521.5
				l-0.649,60.345"/>
		</g>
	</g>
	<g transform="matrix(0.8671492239973475, 0, 0, 0.8671492239973475, 752.4461885362989, 485.38097913474587)">
		<g>
			<path fill="none" stroke="#000000" stroke-width="2" stroke-miterlimit="10" stroke-opacity="0.3922" d="M-294.193-277.763
				l181.686-43.773"/>
		</g>
	</g>
	<g transform="matrix(0.8671492239973475, 0, 0, 0.8671492239973475, 752.4461885362989, 485.38097913474587)">
		<g>
			<path fill="none" stroke="#000000" stroke-width="2" stroke-miterlimit="10" stroke-opacity="0.3922" d="M-65.153-281.311
				l-17.075-29.41"/>
		</g>
	</g>
	<g transform="matrix(0.8671492239973475, 0, 0, 0.8671492239973475, 752.4461885362989, 485.38097913474587)">
		<g>
			<path fill="none" stroke="#000000" stroke-width="2" stroke-miterlimit="10" stroke-opacity="0.3922" d="M-44.209-252.577
				L158.726-25.675"/>
		</g>
	</g>
	<g transform="matrix(0.8671492239973475, 0, 0, 0.8671492239973475, 752.4461885362989, 485.38097913474587)">
		<g>
			<path fill="none" stroke="#000000" stroke-width="2" stroke-miterlimit="10" stroke-opacity="0.3922" d="M422.324-282.487
				L186.752-25.59"/>
		</g>
	</g>
	<g transform="matrix(0.8671492239973475, 0, 0, 0.8671492239973475, 752.4461885362989, 485.38097913474587)">
		<g>
			<path fill="none" stroke="#000000" stroke-width="2" stroke-miterlimit="10" stroke-opacity="0.3922" d="M-433.824-17.296
				l-51.455-54.437"/>
		</g>
	</g>
	<g transform="matrix(0.8671492239973475, 0, 0, 0.8671492239973475, 752.4461885362989, 485.38097913474587)">
		<g>
			<path fill="none" stroke="#000000" stroke-width="2" stroke-miterlimit="10" stroke-opacity="0.3922" d="M-297.64-281.245
				L2.594-415.897"/>
		</g>
	</g>
	<g transform="matrix(0.8671492239973475, 0, 0, 0.8671492239973475, 752.4461885362989, 485.38097913474587)">
		<g>
			<path fill="none" stroke="#000000" stroke-width="2" stroke-miterlimit="10" stroke-opacity="0.3922" d="M416.709-301.536
				L47.765-418.162"/>
		</g>
	</g>
	<g transform="matrix(0.8671492239973475, 0, 0, 0.8671492239973475, 752.4461885362989, 485.38097913474587)">
		<g>
			<path fill="none" stroke="#000000" stroke-width="2" stroke-miterlimit="10" stroke-opacity="0.3922" d="M-48.693-281.311
				l64.55-127.722"/>
		</g>
	</g>
	<g transform="matrix(0.8671492239973475, 0, 0, 0.8671492239973475, 752.4461885362989, 485.38097913474587)">
		<g>
			<path fill="none" stroke="#000000" stroke-width="2" stroke-miterlimit="10" stroke-opacity="0.3922" d="M-429.798,9.554
				l-24.544,52.926"/>
		</g>
	</g>
	<g transform="matrix(0.8671492239973475, 0, 0, 0.8671492239973475, 752.4461885362989, 485.38097913474587)">
		<g>
			<path fill="none" stroke="#000000" stroke-width="2" stroke-miterlimit="10" stroke-opacity="0.3922" d="M-48.853-251
				L24.83-102.107"/>
		</g>
	</g>
	<g transform="matrix(0.8671492239973475, 0, 0, 0.8671492239973475, 752.4461885362989, 485.38097913474587)">
		<g>
			<path fill="none" stroke="#000000" stroke-width="2" stroke-miterlimit="10" stroke-opacity="0.3922" d="M-298.76-261.477
				L7.4-98.741"/>
		</g>
	</g>
	<g transform="matrix(0.8671492239973475, 0, 0, 0.8671492239973475, 752.4461885362989, 485.38097913474587)">
		<g>
			<path fill="none" stroke="#000000" stroke-width="2" stroke-miterlimit="10" stroke-opacity="0.3922" d="M418.679-287.51
				L59.404-98.681"/>
		</g>
	</g>
	<g transform="matrix(0.8671492239973475, 0, 0, 0.8671492239973475, 752.4461885362989, 485.38097913474587)">
		<g>
			<path fill="none" stroke="#000000" stroke-width="2" stroke-miterlimit="10" stroke-opacity="0.3922" d="M-406.229-3.146
				l85.061,12.628"/>
		</g>
	</g>
	<g transform="matrix(0.8671492239973475, 0, 0, 0.8671492239973475, 752.4461885362989, 485.38097913474587)">
		<g>
			<path fill="none" stroke="#000000" stroke-width="2" stroke-miterlimit="10" stroke-opacity="0.3922" d="M-36.853-269.601
				l28.751-5.079"/>
		</g>
	</g>
	<g transform="matrix(0.8671492239973475, 0, 0, 0.8671492239973475, 752.4461885362989, 485.38097913474587)">
		<g>
			<path fill="none" stroke="#000000" stroke-width="2" stroke-miterlimit="10" stroke-opacity="0.3922" d="M-69.047,260.576
				L-49.35,275.7"/>
		</g>
	</g>
	<g transform="matrix(0.8671492239973475, 0, 0, 0.8671492239973475, 752.4461885362989, 485.38097913474587)">
		<g>
			<path fill="none" stroke="#000000" stroke-width="2" stroke-miterlimit="10" stroke-opacity="0.3922" d="M-57.118-251
				l-3.241,64.121"/>
		</g>
	</g>
	<g transform="matrix(0.8671492239973475, 0, 0, 0.8671492239973475, 752.4461885362989, 485.38097913474587)">
		<g>
			<path fill="none" stroke="#000000" stroke-width="2" stroke-miterlimit="10" stroke-opacity="0.3922" d="M-88.515,266.238
				l-29.094,62.055"/>
		</g>
	</g>
	<g transform="matrix(0.8671492239973475, 0, 0, 0.8671492239973475, 752.4461885362989, 485.38097913474587)">
		<g>
			<path fill="none" stroke="#000000" stroke-width="2" stroke-miterlimit="10" stroke-opacity="0.3922" d="M-68.36-252.388
				L-287-1.686"/>
		</g>
	</g>
	<g transform="matrix(0.8671492239973475, 0, 0, 0.8671492239973475, 752.4461885362989, 485.38097913474587)">
		<g>
			<path fill="none" stroke="#000000" stroke-width="2" stroke-miterlimit="10" stroke-opacity="0.3922" d="M-70.451,239.224
				l67.944-73.524"/>
		</g>
	</g>
	<g transform="matrix(0.8671492239973475, 0, 0, 0.8671492239973475, 752.4461885362989, 485.38097913474587)">
		<g>
			<path fill="none" stroke="#000000" stroke-width="2" stroke-miterlimit="10" stroke-opacity="0.3922" d="M-256.722,133.106
				l-30.536,76.079"/>
		</g>
	</g>
	<g transform="matrix(0.8671492239973475, 0, 0, 0.8671492239973475, 752.4461885362989, 485.38097913474587)">
		<g>
			<path fill="none" stroke="#000000" stroke-width="2" stroke-miterlimit="10" stroke-opacity="0.3922" d="M-236.555-521.5
				l10.571,63.427"/>
		</g>
	</g>
	<g transform="matrix(0.8671492239973475, 0, 0, 0.8671492239973475, 752.4461885362989, 485.38097913474587)">
		<g>
			<path fill="none" stroke="#000000" stroke-width="2" stroke-miterlimit="10" stroke-opacity="0.3922" d="M-230.446,120.44
				l212.823,26.239"/>
		</g>
	</g>
	<g transform="matrix(0.8671492239973475, 0, 0, 0.8671492239973475, 752.4461885362989, 485.38097913474587)">
		<g>
			<path fill="none" stroke="#000000" stroke-width="2" stroke-miterlimit="10" stroke-opacity="0.3922" d="M422.145-282.734
				L26.243,134.982"/>
		</g>
	</g>
	<g transform="matrix(0.8671492239973475, 0, 0, 0.8671492239973475, 752.4461885362989, 485.38097913474587)">
		<g>
			<path fill="none" stroke="#000000" stroke-width="2" stroke-miterlimit="10" stroke-opacity="0.3922" d="M-257.68,102.795
				l-34.235-73.687"/>
		</g>
	</g>
	<g transform="matrix(0.8671492239973475, 0, 0, 0.8671492239973475, 752.4461885362989, 485.38097913474587)">
		<g>
			<path fill="none" stroke="#000000" stroke-width="2" stroke-miterlimit="10" stroke-opacity="0.3922" d="M-317.413-256.771
				l16.714,251.988"/>
		</g>
	</g>
	<g transform="matrix(0.8671492239973475, 0, 0, 0.8671492239973475, 752.4461885362989, 485.38097913474587)">
		<g>
			<path fill="none" stroke="#000000" stroke-width="2" stroke-miterlimit="10" stroke-opacity="0.3922" d="M-288.417-271.927
				h66.764"/>
		</g>
	</g>
	<g transform="matrix(0.8671492239973475, 0, 0, 0.8671492239973475, 752.4461885362989, 485.38097913474587)">
		<g>
			<path fill="none" stroke="#000000" stroke-width="2" stroke-miterlimit="10" stroke-opacity="0.3922" d="M-266.72,109.796
				l-60.801-30.831"/>
		</g>
	</g>
	<g transform="matrix(0.8671492239973475, 0, 0, 0.8671492239973475, 752.4461885362989, 485.38097913474587)">
		<g>
			<path fill="none" stroke="#000000" stroke-width="2" stroke-miterlimit="10" stroke-opacity="0.3922" d="M-334.865-258.234
				l-55.368,46.093"/>
		</g>
	</g>
	<g transform="matrix(0.8671492239973475, 0, 0, 0.8671492239973475, 752.4461885362989, 485.38097913474587)">
		<g>
			<path fill="none" stroke="#000000" stroke-width="2" stroke-miterlimit="10" stroke-opacity="0.3922" d="M-250.434,102.795
				l3.221-238.904"/>
		</g>
	</g>
	<g transform="matrix(0.8671492239973475, 0, 0, 0.8671492239973475, 752.4461885362989, 485.38097913474587)">
		<g>
			<path fill="none" stroke="#000000" stroke-width="2" stroke-miterlimit="10" stroke-opacity="0.3922" d="M-309.267-256.771
				l52.109,86.302"/>
		</g>
	</g>
	<g transform="matrix(0.8671492239973475, 0, 0, 0.8671492239973475, 752.4461885362989, 485.38097913474587)">
		<g>
			<path fill="none" stroke="#000000" stroke-width="2" stroke-miterlimit="10" stroke-opacity="0.3922" d="M-348.417-271.927
				h-58.765"/>
		</g>
	</g>
	<g transform="matrix(0.8671492239973475, 0, 0, 0.8671492239973475, 752.4461885362989, 485.38097913474587)">
		<g>
			<path fill="none" stroke="#000000" stroke-width="2" stroke-miterlimit="10" stroke-opacity="0.3922" d="M-318.417-287.082
				v-90.109"/>
		</g>
	</g>
	<g transform="matrix(0.8671492239973475, 0, 0, 0.8671492239973475, 752.4461885362989, 485.38097913474587)">
		<g>
			<path fill="none" stroke="#000000" stroke-width="2" stroke-miterlimit="10" stroke-opacity="0.3922" d="M190.864-298.678
				l-4.471,18.683"/>
		</g>
	</g>
	<g transform="matrix(0.8671492239973475, 0, 0, 0.8671492239973475, 752.4461885362989, 485.38097913474587)">
		<g>
			<path fill="none" stroke="#000000" stroke-width="2" stroke-miterlimit="10" stroke-opacity="0.3922" d="M414.525-293.232
				l-195.763,25.814"/>
		</g>
	</g>
	<g transform="matrix(0.8671492239973475, 0, 0, 0.8671492239973475, 752.4461885362989, 485.38097913474587)">
		<g>
			<path fill="none" stroke="#000000" stroke-width="2" stroke-miterlimit="10" stroke-opacity="0.3922" d="M431.144-280.724
				l-23.027,100.888"/>
		</g>
	</g>
	<g transform="matrix(0.8671492239973475, 0, 0, 0.8671492239973475, 752.4461885362989, 485.38097913474587)">
		<g>
			<path fill="none" stroke="#000000" stroke-width="2" stroke-miterlimit="10" stroke-opacity="0.3922" d="M441.591-280.724
				l41.747,90.546"/>
		</g>
	</g>
	<g transform="matrix(0.8671492239973475, 0, 0, 0.8671492239973475, 752.4461885362989, 485.38097913474587)">
		<g>
			<path fill="none" stroke="#000000" stroke-width="2" stroke-miterlimit="10" stroke-opacity="0.3922" d="M418.301-303.73
				l-79.443-38.258"/>
		</g>
	</g>
	<g transform="matrix(0.8671492239973475, 0, 0, 0.8671492239973475, 752.4461885362989, 485.38097913474587)">
		<g>
			<path fill="none" stroke="#000000" stroke-width="2" stroke-miterlimit="10" stroke-opacity="0.3922" d="M431.144-311.035
				l-23.016-100.839"/>
		</g>
	</g>
	<g transform="matrix(0.8671492239973475, 0, 0, 0.8671492239973475, 752.4461885362989, 485.38097913474587)">
		<g>
			<path fill="none" stroke="#000000" stroke-width="2" stroke-miterlimit="10" stroke-opacity="0.3922" d="M446.121-310.322
				l60.846-76.3"/>
		</g>
	</g>
	<g transform="matrix(0.8671492239973475, 0, 0, 0.8671492239973475, 752.4461885362989, 485.38097913474587)">
		<g>
			<path fill="none" stroke="#000000" stroke-width="2" stroke-miterlimit="10" stroke-opacity="0.3922" d="M456.604-295.879h88.77"
				/>
		</g>
	</g>
	<g transform="matrix(0.8671492239973475, 0, 0, 0.8671492239973475, 752.4461885362989, 485.38097913474587)">
		<g>
			<path fill="none" stroke="#000000" stroke-width="2" stroke-miterlimit="10" stroke-opacity="0.3922" d="M419.961-285.742
				L206.016-137.617"/>
		</g>
	</g>
	<g transform="matrix(0.8671492239973475, 0, 0, 0.8671492239973475, 752.4461885362989, 485.38097913474587)">
		<g>
			<path fill="none" stroke="#000000" stroke-width="2" stroke-miterlimit="10" stroke-opacity="0.3922" d="M421.981-282.96
				L239.73-96.419"/>
		</g>
	</g>
	<g transform="matrix(0.8671492239973475, 0, 0, 0.8671492239973475, 752.4461885362989, 485.38097913474587)">
		<g>
			<path fill="none" stroke="#000000" stroke-width="2" stroke-miterlimit="10" stroke-opacity="0.3922" d="M427.485-280.724
				L291.335,9.158"/>
		</g>
	</g>
	<g transform="matrix(0.8671492239973475, 0, 0, 0.8671492239973475, 752.4461885362989, 485.38097913474587)">
		<g>
			<path fill="none" stroke="#000000" stroke-width="2" stroke-miterlimit="10" stroke-opacity="0.3922" d="M449.615-286.25
				l76.529,49.09"/>
		</g>
	</g>
	<g transform="matrix(0.8671492239973475, 0, 0, 0.8671492239973475, 752.4461885362989, 485.38097913474587)">
		<g>
			<path fill="none" stroke="#000000" stroke-width="2" stroke-miterlimit="10" stroke-opacity="0.3922" d="M429.798-280.724
				l-140.072,441.82"/>
		</g>
	</g>
	<g transform="matrix(0.8671492239973475, 0, 0, 0.8671492239973475, 752.4461885362989, 485.38097913474587)">
		<g>
			<path fill="none" stroke="#000000" stroke-width="4" stroke-miterlimit="10" d="M181.268,234.927c0,8.56-12.535,15.5-28,15.5
				c-15.464,0-28-6.939-28-15.5c0-8.561,12.537-15.501,28-15.501C168.733,219.426,181.268,226.366,181.268,234.927z"/>
		</g>
	</g>
	<g transform="matrix(0.8671492239973475, 0, 0, 0.8671492239973475, 752.4461885362989, 485.38097913474587)">
		<g>
			<path fill="#0099FF" d="M181.268,234.927c0,8.56-12.535,15.5-28,15.5c-15.464,0-28-6.939-28-15.5
				c0-8.561,12.537-15.501,28-15.501C168.733,219.426,181.268,226.366,181.268,234.927z"/>
		</g>
	</g>
	<g transform="matrix(0.8671492239973475, 0, 0, 0.8671492239973475, 864.7806362218248, 693.6676928479842)">
		<text transform="matrix(1.1532 0 0 1.1532 6.408691e-004 3.356934e-004)" font-family="'ArialMT'" font-size="12.1401">STMN1</text>
	</g>
	<g transform="matrix(0.8671492239973475, 0, 0, 0.8671492239973475, 752.4461885362989, 485.38097913474587)">
		<g>
			<path fill="none" stroke="#000000" stroke-width="4" stroke-miterlimit="10" d="M338.427,68.894c0,8.56-14.327,15.5-32,15.5
				s-31.999-6.94-31.999-15.5s14.326-15.501,31.999-15.501S338.427,60.334,338.427,68.894z"/>
		</g>
	</g>
	<g transform="matrix(0.8671492239973475, 0, 0, 0.8671492239973475, 752.4461885362989, 485.38097913474587)">
		<g>
			<path fill="#0099FF" d="M338.427,68.894c0,8.56-14.327,15.5-32,15.5s-31.999-6.94-31.999-15.5s14.326-15.501,31.999-15.501
				S338.427,60.334,338.427,68.894z"/>
		</g>
	</g>
	<g transform="matrix(0.8671492239973475, 0, 0, 0.8671492239973475, 995.223889657844, 549.6922619168174)">
		<text transform="matrix(1.1532 0 0 1.1532 -3.662109e-004 1.525879e-004)" font-family="'ArialMT'" font-size="12.1401">BCLAF1</text>
	</g>
	<g transform="matrix(0.8671492239973475, 0, 0, 0.8671492239973475, 752.4461885362989, 485.38097913474587)">
		<g>
			<path fill="none" stroke="#000000" stroke-width="4" stroke-miterlimit="10" d="M15.958,316.559l20,13.423h40l20.001-13.423
				l-20.001-13.424h-40L15.958,316.559z"/>
		</g>
	</g>
	<g transform="matrix(0.8671492239973475, 0, 0, 0.8671492239973475, 752.4461885362989, 485.38097913474587)">
		<g>
			<path fill="#FFFFFF" d="M15.958,316.559l20,13.423h40l20.001-13.423l-20.001-13.424h-40L15.958,316.559z"/>
		</g>
	</g>
	<g transform="matrix(0.8671492239973475, 0, 0, 0.8671492239973475, 776.6749420117911, 764.4546231080777)">
		<text transform="matrix(1.1532 0 0 1.1532 -2.136230e-004 5.035400e-004)" font-family="'ArialMT'" font-size="12.1401">Protease</text>
	</g>
	<g transform="matrix(0.8671492239973475, 0, 0, 0.8671492239973475, 752.4461885362989, 485.38097913474587)">
		<g>
			<path fill="none" stroke="#000000" stroke-width="4" stroke-miterlimit="10" d="M197.579,103.229c0,8.56-12.535,15.501-28,15.501
				c-15.464,0-28-6.941-28-15.501s12.537-15.5,28-15.5C185.043,87.729,197.579,94.668,197.579,103.229z"/>
		</g>
	</g>
	<g transform="matrix(0.8671492239973475, 0, 0, 0.8671492239973475, 752.4461885362989, 485.38097913474587)">
		<g>
			<path fill="#0099FF" d="M197.579,103.229c0,8.56-12.535,15.501-28,15.501c-15.464,0-28-6.941-28-15.501s12.537-15.5,28-15.5
				C185.043,87.729,197.579,94.668,197.579,103.229z"/>
		</g>
	</g>
	<g transform="matrix(0.8671492239973475, 0, 0, 0.8671492239973475, 878.2481903525621, 579.4659951244562)">
		<text transform="matrix(1.1532 0 0 1.1532 -1.525879e-004 -1.831055e-004)" font-family="'ArialMT'" font-size="12.1401">SRRM1</text>
	</g>
	<g transform="matrix(0.8671492239973475, 0, 0, 0.8671492239973475, 752.4461885362989, 485.38097913474587)">
		<g>
			<path fill="none" stroke="#000000" stroke-width="4" stroke-miterlimit="10" d="M-66.398,41.48l18,13.424h36l18-13.424
				l-18-13.423h-36L-66.398,41.48z"/>
		</g>
	</g>
	<g transform="matrix(0.8671492239973475, 0, 0, 0.8671492239973475, 752.4461885362989, 485.38097913474587)">
		<g>
			<path fill="#FFFFFF" d="M-66.398,41.48l18,13.424h36l18-13.424l-18-13.423h-36L-66.398,41.48z"/>
		</g>
	</g>
	<g transform="matrix(0.8671492239973475, 0, 0, 0.8671492239973475, 704.1535032513053, 525.9212473488305)">
		<text transform="matrix(1.1532 0 0 1.1532 -2.136230e-004 6.713867e-004)" font-family="'ArialMT'" font-size="12.1401">Gag.Pol</text>
	</g>
	<g transform="matrix(0.8671492239973475, 0, 0, 0.8671492239973475, 752.4461885362989, 485.38097913474587)">
		<g>
			<path fill="none" stroke="#000000" stroke-width="4" stroke-miterlimit="10" d="M241.831,120.685l10,13.423h20l10-13.423
				l-10-13.424h-20L241.831,120.685z"/>
		</g>
	</g>
	<g transform="matrix(0.8671492239973475, 0, 0, 0.8671492239973475, 752.4461885362989, 485.38097913474587)">
		<g>
			<path fill="#FFFFFF" d="M241.831,120.685l10,13.423h20l10-13.423l-10-13.424h-20L241.831,120.685z"/>
		</g>
	</g>
	<g transform="matrix(0.8671492239973475, 0, 0, 0.8671492239973475, 968.6980627043022, 594.6033831185429)">
		<text transform="matrix(1.1532 0 0 1.1532 1.831055e-004 1.220703e-004)" font-family="'ArialMT'" font-size="12.1401">Rev</text>
	</g>
	<g transform="matrix(0.8671492239973475, 0, 0, 0.8671492239973475, 752.4461885362989, 485.38097913474587)">
		<g>
			<path fill="none" stroke="#000000" stroke-width="4" stroke-miterlimit="10" d="M-216.77,279.4c0,8.56-14.327,15.5-32,15.5
				s-32-6.939-32-15.5c0-8.561,14.327-15.501,32-15.501S-216.77,270.838-216.77,279.4z"/>
		</g>
	</g>
	<g transform="matrix(0.8671492239973475, 0, 0, 0.8671492239973475, 752.4461885362989, 485.38097913474587)">
		<g>
			<path fill="#CC3300" d="M-216.77,279.4c0,8.56-14.327,15.5-32,15.5s-32-6.939-32-15.5c0-8.561,14.327-15.501,32-15.501
				S-216.77,270.838-216.77,279.4z"/>
		</g>
	</g>
	<g transform="matrix(0.8671492239973475, 0, 0, 0.8671492239973475, 513.444481936047, 732.2321222042725)">
		<text transform="matrix(1.1532 0 0 1.1532 -1.850128e-004 -8.087158e-004)" font-family="'ArialMT'" font-size="12.1401">UBE2V2</text>
	</g>
	<g transform="matrix(0.8671492239973475, 0, 0, 0.8671492239973475, 752.4461885362989, 485.38097913474587)">
		<g>
			<path fill="none" stroke="#000000" stroke-width="4" stroke-miterlimit="10" d="M-98.94-106.72c0,8.56-12.537,15.5-28,15.5
				s-28-6.94-28-15.5c0-8.561,12.537-15.5,28-15.5S-98.94-115.281-98.94-106.72z"/>
		</g>
	</g>
	<g transform="matrix(0.8671492239973475, 0, 0, 0.8671492239973475, 752.4461885362989, 485.38097913474587)">
		<g>
			<path fill="#CC3300" d="M-98.94-106.72c0,8.56-12.537,15.5-28,15.5s-28-6.94-28-15.5c0-8.561,12.537-15.5,28-15.5
				S-98.94-115.281-98.94-106.72z"/>
		</g>
	</g>
	<g transform="matrix(0.8671492239973475, 0, 0, 0.8671492239973475, 622.4646931205901, 397.4091230350749)">
		<text transform="matrix(1.1532 0 0 1.1532 1.373291e-004 6.103516e-005)" font-family="'ArialMT'" font-size="12.1401">HEBP2</text>
	</g>
	<g transform="matrix(0.8671492239973475, 0, 0, 0.8671492239973475, 752.4461885362989, 485.38097913474587)">
		<g>
			<path fill="none" stroke="#000000" stroke-width="4" stroke-miterlimit="10" d="M-131.769,115.399l11.999,13.424h24
				l12.001-13.424l-12.001-13.423h-24L-131.769,115.399z"/>
		</g>
	</g>
	<g transform="matrix(0.8671492239973475, 0, 0, 0.8671492239973475, 752.4461885362989, 485.38097913474587)">
		<g>
			<path fill="#FFFFFF" d="M-131.769,115.399l11.999,13.424h24l12.001-13.424l-12.001-13.423h-24L-131.769,115.399z"/>
		</g>
	</g>
	<g transform="matrix(0.8671492239973475, 0, 0, 0.8671492239973475, 646.8449026445518, 590.0196627003546)">
		<text transform="matrix(1.1532 0 0 1.1532 -2.288818e-004 -1.525879e-004)" font-family="'ArialMT'" font-size="12.1401">pr55</text>
	</g>
	<g transform="matrix(0.8671492239973475, 0, 0, 0.8671492239973475, 752.4461885362989, 485.38097913474587)">
		<g>
			<path fill="none" stroke="#000000" stroke-width="4" stroke-miterlimit="10" d="M-92.851-24.046l9.999,13.424h20.001
				l9.999-13.424l-9.999-13.423h-20.001L-92.851-24.046z"/>
		</g>
	</g>
	<g transform="matrix(0.8671492239973475, 0, 0, 0.8671492239973475, 752.4461885362989, 485.38097913474587)">
		<g>
			<path fill="#FFFFFF" d="M-92.851-24.046l9.999,13.424h20.001l9.999-13.424l-9.999-13.423h-20.001L-92.851-24.046z"/>
		</g>
	</g>
	<g transform="matrix(0.8671492239973475, 0, 0, 0.8671492239973475, 679.8275616739467, 469.0999798822655)">
		<text transform="matrix(1.1532 0 0 1.1532 5.950928e-004 -4.577637e-004)" font-family="'ArialMT'" font-size="12.1401">Nef</text>
	</g>
	<g transform="matrix(0.8671492239973475, 0, 0, 0.8671492239973475, 752.4461885362989, 485.38097913474587)">
		<g>
			<path fill="none" stroke="#000000" stroke-width="4" stroke-miterlimit="10" d="M-70.081-443.655c0,8.561-14.327,15.5-32,15.5
				s-32-6.94-32-15.5c0-8.56,14.327-15.5,32-15.5S-70.081-452.215-70.081-443.655z"/>
		</g>
	</g>
	<g transform="matrix(0.8671492239973475, 0, 0, 0.8671492239973475, 752.4461885362989, 485.38097913474587)">
		<g>
			<path fill="#0099FF" d="M-70.081-443.655c0,8.561-14.327,15.5-32,15.5s-32-6.94-32-15.5c0-8.56,14.327-15.5,32-15.5
				S-70.081-452.215-70.081-443.655z"/>
		</g>
	</g>
	<g transform="matrix(0.8671492239973475, 0, 0, 0.8671492239973475, 640.3134970056728, 105.23649907665182)">
		<text transform="matrix(1.1532 0 0 1.1532 -4.577637e-005 -1.831055e-004)" font-family="'ArialMT'" font-size="12.1401">FAM98A</text>
	</g>
	<g transform="matrix(0.8671492239973475, 0, 0, 0.8671492239973475, 752.4461885362989, 485.38097913474587)">
		<g>
			<path fill="none" stroke="#000000" stroke-width="4" stroke-miterlimit="10" d="M-71.451-326.609c0,8.561-8.954,15.5-20,15.5
				c-11.046,0-20.001-6.94-20.001-15.5c0-8.56,8.955-15.5,20.001-15.5C-80.406-342.108-71.451-335.169-71.451-326.609z"/>
		</g>
	</g>
	<g transform="matrix(0.8671492239973475, 0, 0, 0.8671492239973475, 752.4461885362989, 485.38097913474587)">
		<g>
			<path fill="#0099FF" d="M-71.451-326.609c0,8.561-8.954,15.5-20,15.5c-11.046,0-20.001-6.94-20.001-15.5
				c0-8.56,8.955-15.5,20.001-15.5C-80.406-342.108-71.451-335.169-71.451-326.609z"/>
		</g>
	</g>
	<g transform="matrix(0.8671492239973475, 0, 0, 0.8671492239973475, 661.0041014322225, 206.73310310162677)">
		<text transform="matrix(1.1532 0 0 1.1532 -2.899170e-004 -2.441406e-004)" font-family="'ArialMT'" font-size="12.1401">TPR</text>
	</g>
	<g transform="matrix(0.8671492239973475, 0, 0, 0.8671492239973475, 752.4461885362989, 485.38097913474587)">
		<g>
			<path fill="none" stroke="#000000" stroke-width="4" stroke-miterlimit="10" d="M-117.081-536.655l7.999,13.423h16.001
				l7.999-13.423l-7.999-13.423h-16.001L-117.081-536.655z"/>
		</g>
	</g>
	<g transform="matrix(0.8671492239973475, 0, 0, 0.8671492239973475, 752.4461885362989, 485.38097913474587)">
		<g>
			<path fill="#FFFFFF" d="M-117.081-536.655l7.999,13.423h16.001l7.999-13.423l-7.999-13.423h-16.001L-117.081-536.655z"/>
		</g>
	</g>
	<g transform="matrix(0.8671492239973475, 0, 0, 0.8671492239973475, 656.3616854275222, 24.591621244898505)">
		<text transform="matrix(1.1532 0 0 1.1532 -5.035400e-004 -4.882813e-004)" font-family="'ArialMT'" font-size="12.1401">CA</text>
	</g>
	<g transform="matrix(0.8671492239973475, 0, 0, 0.8671492239973475, 752.4461885362989, 485.38097913474587)">
		<g>
			<path fill="none" stroke="#000000" stroke-width="4" stroke-miterlimit="10" d="M200.601-10.16c0,8.56-12.535,15.5-28,15.5
				c-15.464,0-27.999-6.939-27.999-15.5c0-8.56,12.535-15.5,27.999-15.5C188.066-25.659,200.601-18.72,200.601-10.16z"/>
		</g>
	</g>
	<g transform="matrix(0.8671492239973475, 0, 0, 0.8671492239973475, 752.4461885362989, 485.38097913474587)">
		<g>
			<path fill="#0099FF" d="M200.601-10.16c0,8.56-12.535,15.5-28,15.5c-15.464,0-27.999-6.939-27.999-15.5
				c0-8.56,12.535-15.5,27.999-15.5C188.066-25.659,200.601-18.72,200.601-10.16z"/>
		</g>
	</g>
	<g transform="matrix(0.8671492239973475, 0, 0, 0.8671492239973475, 882.212100725894, 481.1414866315494)">
		<text transform="matrix(1.1532 0 0 1.1532 -2.746582e-004 -6.103516e-005)" font-family="'ArialMT'" font-size="12.1401">PRSS1</text>
	</g>
	<g transform="matrix(0.8671492239973475, 0, 0, 0.8671492239973475, 752.4461885362989, 485.38097913474587)">
		<g>
			<path fill="none" stroke="#000000" stroke-width="4" stroke-miterlimit="10" d="M-475.236-86.499c0,8.56-10.745,15.5-24,15.5
				c-13.254,0-23.999-6.94-23.999-15.5s10.745-15.501,23.999-15.501C-485.981-101.999-475.236-95.059-475.236-86.499z"/>
		</g>
	</g>
	<g transform="matrix(0.8671492239973475, 0, 0, 0.8671492239973475, 752.4461885362989, 485.38097913474587)">
		<g>
			<path fill="#0099FF" d="M-475.236-86.499c0,8.56-10.745,15.5-24,15.5c-13.254,0-23.999-6.94-23.999-15.5
				s10.745-15.501,23.999-15.501C-485.981-101.999-475.236-95.059-475.236-86.499z"/>
		</g>
	</g>
	<g transform="matrix(0.8671492239973475, 0, 0, 0.8671492239973475, 303.0109070184017, 414.9441847200719)">
		<text transform="matrix(1.1532 0 0 1.1532 -2.593994e-004 0)" font-family="'ArialMT'" font-size="12.1401">ARNT</text>
	</g>
	<g transform="matrix(0.8671492239973475, 0, 0, 0.8671492239973475, 752.4461885362989, 485.38097913474587)">
		<g>
			<path fill="none" stroke="#000000" stroke-width="4" stroke-miterlimit="10" d="M48.231-425.601c0,8.56-10.746,15.5-24,15.5
				c-13.255,0-24-6.94-24-15.5c0-8.561,10.745-15.5,24-15.5C37.485-441.101,48.231-434.161,48.231-425.601z"/>
		</g>
	</g>
	<g transform="matrix(0.8671492239973475, 0, 0, 0.8671492239973475, 752.4461885362989, 485.38097913474587)">
		<g>
			<path fill="#0099FF" d="M48.231-425.601c0,8.56-10.746,15.5-24,15.5c-13.255,0-24-6.94-24-15.5c0-8.561,10.745-15.5,24-15.5
				C37.485-441.101,48.231-434.161,48.231-425.601z"/>
		</g>
	</g>
	<g transform="matrix(0.8671492239973475, 0, 0, 0.8671492239973475, 757.9386584769502, 120.89191928614255)">
		<text transform="matrix(1.1532 0 0 1.1532 -3.356934e-004 6.103516e-005)" font-family="'ArialMT'" font-size="12.1401">LDLR</text>
	</g>
	<g transform="matrix(0.8671492239973475, 0, 0, 0.8671492239973475, 752.4461885362989, 485.38097913474587)">
		<g>
			<path fill="none" stroke="#000000" stroke-width="4" stroke-miterlimit="10" d="M-430.235,79.501
				c0,8.561-14.327,15.501-32,15.501c-17.673,0-32-6.94-32-15.501c0-8.56,14.327-15.5,32-15.5
				C-444.562,64.001-430.235,70.941-430.235,79.501z"/>
		</g>
	</g>
	<g transform="matrix(0.8671492239973475, 0, 0, 0.8671492239973475, 752.4461885362989, 485.38097913474587)">
		<g>
			<path fill="#0099FF" d="M-430.235,79.501c0,8.561-14.327,15.501-32,15.501c-17.673,0-32-6.94-32-15.501
				c0-8.56,14.327-15.5,32-15.5C-444.562,64.001-430.235,70.941-430.235,79.501z"/>
		</g>
	</g>
	<g transform="matrix(0.8671492239973475, 0, 0, 0.8671492239973475, 326.9921294558701, 558.8909559036316)">
		<text transform="matrix(1.1532 0 0 1.1532 -3.051758e-005 -4.882813e-004)" font-family="'ArialMT'" font-size="12.1401">SWAP70</text>
	</g>
	<g transform="matrix(0.8671492239973475, 0, 0, 0.8671492239973475, 752.4461885362989, 485.38097913474587)">
		<g>
			<path fill="none" stroke="#000000" stroke-width="4" stroke-miterlimit="10" d="M73.312-84.968c0,8.56-17.908,15.5-40.001,15.5
				c-22.091,0-40-6.939-40-15.5c0-8.561,17.908-15.501,40-15.501C55.403-100.469,73.312-93.529,73.312-84.968z"/>
		</g>
	</g>
	<g transform="matrix(0.8671492239973475, 0, 0, 0.8671492239973475, 752.4461885362989, 485.38097913474587)">
		<g>
			<path fill="#CC3300" d="M73.312-84.968c0,8.56-17.908,15.5-40.001,15.5c-22.091,0-40-6.939-40-15.5
				c0-8.561,17.908-15.501,40-15.501C55.403-100.469,73.312-93.529,73.312-84.968z"/>
		</g>
	</g>
	<g transform="matrix(0.8671492239973475, 0, 0, 0.8671492239973475, 752.3220095283152, 416.2712064546686)">
		<text transform="matrix(1.1532 0 0 1.1532 2.136230e-004 2.136230e-004)" font-family="'ArialMT'" font-size="12.1401">HIST1H1B</text>
	</g>
	<g transform="matrix(0.8671492239973475, 0, 0, 0.8671492239973475, 752.4461885362989, 485.38097913474587)">
		<g>
			<path fill="none" stroke="#000000" stroke-width="4" stroke-miterlimit="10" d="M-438.769-5.601l7.999,13.423h16.001
				l7.999-13.423l-7.999-13.424h-16.001L-438.769-5.601z"/>
		</g>
	</g>
	<g transform="matrix(0.8671492239973475, 0, 0, 0.8671492239973475, 752.4461885362989, 485.38097913474587)">
		<g>
			<path fill="#FFFFFF" d="M-438.769-5.601l7.999,13.423h16.001l7.999-13.423l-7.999-13.424h-16.001L-438.769-5.601z"/>
		</g>
	</g>
	<g transform="matrix(0.8671492239973475, 0, 0, 0.8671492239973475, 376.73679780457854, 485.094599980852)">
		<text transform="matrix(1.1532 0 0 1.1532 -6.256104e-004 0)" font-family="'ArialMT'" font-size="12.1401">MA</text>
	</g>
	<g transform="matrix(0.8671492239973475, 0, 0, 0.8671492239973475, 752.4461885362989, 485.38097913474587)">
		<g>
			<path fill="none" stroke="#000000" stroke-width="4" stroke-miterlimit="10" d="M70.565-281.512c0,8.56-17.908,15.5-40,15.5
				s-40-6.94-40-15.5c0-8.561,17.908-15.5,40-15.5S70.565-290.072,70.565-281.512z"/>
		</g>
	</g>
	<g transform="matrix(0.8671492239973475, 0, 0, 0.8671492239973475, 752.4461885362989, 485.38097913474587)">
		<g>
			<path fill="#0099FF" d="M70.565-281.512c0,8.56-17.908,15.5-40,15.5s-40-6.94-40-15.5c0-8.561,17.908-15.5,40-15.5
				S70.565-290.072,70.565-281.512z"/>
		</g>
	</g>
	<g transform="matrix(0.8671492239973475, 0, 0, 0.8671492239973475, 747.5724436454423, 245.83865389749934)">
		<text transform="matrix(1.1532 0 0 1.1532 -2.746582e-004 -4.272461e-004)" font-family="'ArialMT'" font-size="12.1401">EBNA1BP2</text>
	</g>
	<g transform="matrix(0.8671492239973475, 0, 0, 0.8671492239973475, 752.4461885362989, 485.38097913474587)">
		<g>
			<path fill="none" stroke="#000000" stroke-width="4" stroke-miterlimit="10" d="M1.581,290.237c0,8.561-14.327,15.501-32,15.501
				s-31.999-6.939-31.999-15.501c0-8.56,14.326-15.5,31.999-15.5S1.581,281.677,1.581,290.237z"/>
		</g>
	</g>
	<g transform="matrix(0.8671492239973475, 0, 0, 0.8671492239973475, 752.4461885362989, 485.38097913474587)">
		<g>
			<path fill="#0099FF" d="M1.581,290.237c0,8.561-14.327,15.501-32,15.501s-31.999-6.939-31.999-15.501
				c0-8.56,14.326-15.5,31.999-15.5S1.581,281.677,1.581,290.237z"/>
		</g>
	</g>
	<g transform="matrix(0.8671492239973475, 0, 0, 0.8671492239973475, 703.4600574364111, 741.6301906495094)">
		<text transform="matrix(1.1532 0 0 1.1532 -2.441406e-004 6.256104e-004)" font-family="'ArialMT'" font-size="12.1401">RPL36A</text>
	</g>
	<g transform="matrix(0.8671492239973475, 0, 0, 0.8671492239973475, 752.4461885362989, 485.38097913474587)">
		<g>
			<path fill="none" stroke="#000000" stroke-width="4" stroke-miterlimit="10" d="M-29.243-169.385c0,8.561-14.327,15.5-32,15.5
				s-31.999-6.94-31.999-15.5c0-8.56,14.326-15.5,31.999-15.5S-29.243-177.945-29.243-169.385z"/>
		</g>
	</g>
	<g transform="matrix(0.8671492239973475, 0, 0, 0.8671492239973475, 752.4461885362989, 485.38097913474587)">
		<g>
			<path fill="#0099FF" d="M-29.243-169.385c0,8.561-14.327,15.5-32,15.5s-31.999-6.94-31.999-15.5c0-8.56,14.326-15.5,31.999-15.5
				S-29.243-177.945-29.243-169.385z"/>
		</g>
	</g>
	<g transform="matrix(0.8671492239973475, 0, 0, 0.8671492239973475, 676.7337313344436, 343.0693748991475)">
		<text transform="matrix(1.1532 0 0 1.1532 6.866455e-004 -1.831055e-004)" font-family="'ArialMT'" font-size="12.1401">ATP5A1</text>
	</g>
	<g transform="matrix(0.8671492239973475, 0, 0, 0.8671492239973475, 752.4461885362989, 485.38097913474587)">
		<g>
			<path fill="none" stroke="#000000" stroke-width="4" stroke-miterlimit="10" d="M-105.296,344.688
				c0,8.561-8.954,15.501-20,15.501c-11.046,0-20-6.94-20-15.501c0-8.56,8.954-15.5,20-15.5
				C-114.251,329.189-105.296,336.128-105.296,344.688z"/>
		</g>
	</g>
	<g transform="matrix(0.8671492239973475, 0, 0, 0.8671492239973475, 752.4461885362989, 485.38097913474587)">
		<g>
			<path fill="#0099FF" d="M-105.296,344.688c0,8.561-8.954,15.501-20,15.501c-11.046,0-20-6.94-20-15.501
				c0-8.56,8.954-15.5,20-15.5C-114.251,329.189-105.296,336.128-105.296,344.688z"/>
		</g>
	</g>
	<g transform="matrix(0.8671492239973475, 0, 0, 0.8671492239973475, 633.0042557606856, 788.8481172057224)">
		<text transform="matrix(1.1532 0 0 1.1532 -5.187988e-004 -6.675720e-004)" font-family="'ArialMT'" font-size="12.1401">VIM</text>
	</g>
	<g transform="matrix(0.8671492239973475, 0, 0, 0.8671492239973475, 752.4461885362989, 485.38097913474587)">
		<g>
			<path fill="none" stroke="#000000" stroke-width="4" stroke-miterlimit="10" d="M-76.354-266.156l10,13.423h20l10-13.423
				l-10-13.423h-20L-76.354-266.156z"/>
		</g>
	</g>
	<g transform="matrix(0.8671492239973475, 0, 0, 0.8671492239973475, 752.4461885362989, 485.38097913474587)">
		<g>
			<path fill="#FFFFFF" d="M-76.354-266.156l10,13.423h20l10-13.423l-10-13.423h-20L-76.354-266.156z"/>
		</g>
	</g>
	<g transform="matrix(0.8671492239973475, 0, 0, 0.8671492239973475, 694.1338699140161, 259.15458658417856)">
		<text transform="matrix(1.1532 0 0 1.1532 -1.525879e-004 6.103516e-005)" font-family="'ArialMT'" font-size="12.1401">Vpr</text>
	</g>
	<g transform="matrix(0.8671492239973475, 0, 0, 0.8671492239973475, 752.4461885362989, 485.38097913474587)">
		<g>
			<path fill="none" stroke="#000000" stroke-width="4" stroke-miterlimit="10" d="M-97.41,251.083l8,13.423h16l8-13.423l-8-13.424
				h-16L-97.41,251.083z"/>
		</g>
	</g>
	<g transform="matrix(0.8671492239973475, 0, 0, 0.8671492239973475, 752.4461885362989, 485.38097913474587)">
		<g>
			<path fill="#FFFFFF" d="M-97.41,251.083l8,13.423h16l8-13.423l-8-13.424h-16L-97.41,251.083z"/>
		</g>
	</g>
	<g transform="matrix(0.8671492239973475, 0, 0, 0.8671492239973475, 675.7822038969235, 707.677387255132)">
		<text transform="matrix(1.1532 0 0 1.1532 -1.068115e-004 -8.544922e-004)" font-family="'ArialMT'" font-size="12.1401">IN</text>
	</g>
	<g transform="matrix(0.8671492239973475, 0, 0, 0.8671492239973475, 752.4461885362989, 485.38097913474587)">
		<g>
			<path fill="none" stroke="#000000" stroke-width="4" stroke-miterlimit="10" d="M-254.186,226.444
				c0,8.56-17.91,15.501-40.001,15.501s-40-6.941-40-15.501c0-8.56,17.908-15.5,40-15.5S-254.186,217.884-254.186,226.444z"/>
		</g>
	</g>
	<g transform="matrix(0.8671492239973475, 0, 0, 0.8671492239973475, 752.4461885362989, 485.38097913474587)">
		<g>
			<path fill="#CC3300" d="M-254.186,226.444c0,8.56-17.91,15.501-40.001,15.501s-40-6.941-40-15.501c0-8.56,17.908-15.5,40-15.5
				S-254.186,217.884-254.186,226.444z"/>
		</g>
	</g>
	<g transform="matrix(0.8671492239973475, 0, 0, 0.8671492239973475, 465.29430645213085, 686.312603945814)">
		<text transform="matrix(1.1532 0 0 1.1532 6.179810e-004 -2.746582e-004)" font-family="'ArialMT'" font-size="12.1401">ANKRD13A</text>
	</g>
	<g transform="matrix(0.8671492239973475, 0, 0, 0.8671492239973475, 752.4461885362989, 485.38097913474587)">
		<g>
			<path fill="none" stroke="#000000" stroke-width="4" stroke-miterlimit="10" d="M-195.081-440.655c0,8.561-12.537,15.5-28,15.5
				c-15.465,0-28-6.94-28-15.5c0-8.56,12.535-15.5,28-15.5C-207.617-456.155-195.081-449.215-195.081-440.655z"/>
		</g>
	</g>
	<g transform="matrix(0.8671492239973475, 0, 0, 0.8671492239973475, 752.4461885362989, 485.38097913474587)">
		<g>
			<path fill="#CC3300" d="M-195.081-440.655c0,8.561-12.537,15.5-28,15.5c-15.465,0-28-6.94-28-15.5c0-8.56,12.535-15.5,28-15.5
				C-207.617-456.155-195.081-449.215-195.081-440.655z"/>
		</g>
	</g>
	<g transform="matrix(0.8671492239973475, 0, 0, 0.8671492239973475, 539.1051576443026, 107.83794674864387)">
		<text transform="matrix(1.1532 0 0 1.1532 -8.850098e-004 -1.831055e-004)" font-family="'ArialMT'" font-size="12.1401">PTPRF</text>
	</g>
	<g transform="matrix(0.8671492239973475, 0, 0, 0.8671492239973475, 752.4461885362989, 485.38097913474587)">
		<g>
			<path fill="none" stroke="#000000" stroke-width="4" stroke-miterlimit="10" d="M39.728,150.297c0,8.56-12.535,15.5-28,15.5
				c-15.464,0-28-6.939-28-15.5c0-8.56,12.537-15.5,28-15.5C27.193,134.797,39.728,141.737,39.728,150.297z"/>
		</g>
	</g>
	<g transform="matrix(0.8671492239973475, 0, 0, 0.8671492239973475, 752.4461885362989, 485.38097913474587)">
		<g>
			<path fill="#0099FF" d="M39.728,150.297c0,8.56-12.535,15.5-28,15.5c-15.464,0-28-6.939-28-15.5c0-8.56,12.537-15.5,28-15.5
				C27.193,134.797,39.728,141.737,39.728,150.297z"/>
		</g>
	</g>
	<g transform="matrix(0.8671492239973475, 0, 0, 0.8671492239973475, 743.3927788615624, 620.2812070414332)">
		<text transform="matrix(1.1532 0 0 1.1532 -3.051758e-004 -9.155273e-005)" font-family="'ArialMT'" font-size="12.1401">TRAF6</text>
	</g>
	<g transform="matrix(0.8671492239973475, 0, 0, 0.8671492239973475, 752.4461885362989, 485.38097913474587)">
		<g>
			<path fill="none" stroke="#000000" stroke-width="4" stroke-miterlimit="10" d="M-263.081-536.655l12.001,13.423h24
				l11.999-13.423l-11.999-13.423h-24L-263.081-536.655z"/>
		</g>
	</g>
	<g transform="matrix(0.8671492239973475, 0, 0, 0.8671492239973475, 752.4461885362989, 485.38097913474587)">
		<g>
			<path fill="#FFFFFF" d="M-263.081-536.655l12.001,13.423h24l11.999-13.423l-11.999-13.423h-24L-263.081-536.655z"/>
		</g>
	</g>
	<g transform="matrix(0.8671492239973475, 0, 0, 0.8671492239973475, 531.6238652921433, 24.591621244898505)">
		<text transform="matrix(1.1532 0 0 1.1532 1.106262e-004 -4.882813e-004)" font-family="'ArialMT'" font-size="12.1401">gp41</text>
	</g>
	<g transform="matrix(0.8671492239973475, 0, 0, 0.8671492239973475, 752.4461885362989, 485.38097913474587)">
		<g>
			<path fill="none" stroke="#000000" stroke-width="4" stroke-miterlimit="10" d="M-279.541,12.693c0,8.56-8.954,15.5-20,15.5
				s-20.001-6.939-20.001-15.5s8.955-15.501,20.001-15.501S-279.541,4.133-279.541,12.693z"/>
		</g>
	</g>
	<g transform="matrix(0.8671492239973475, 0, 0, 0.8671492239973475, 752.4461885362989, 485.38097913474587)">
		<g>
			<path fill="#CC3300" d="M-279.541,12.693c0,8.56-8.954,15.5-20,15.5s-20.001-6.939-20.001-15.5s8.955-15.501,20.001-15.501
				S-279.541,4.133-279.541,12.693z"/>
		</g>
	</g>
	<g transform="matrix(0.8671492239973475, 0, 0, 0.8671492239973475, 480.21896925587623, 500.9578678647737)">
		<text transform="matrix(1.1532 0 0 1.1532 -3.395081e-004 -3.051758e-005)" font-family="'ArialMT'" font-size="12.1401">B2M</text>
	</g>
	<g transform="matrix(0.8671492239973475, 0, 0, 0.8671492239973475, 752.4461885362989, 485.38097913474587)">
		<g>
			<path fill="none" stroke="#000000" stroke-width="4" stroke-miterlimit="10" d="M-171.653-271.927c0,8.561-10.745,15.5-24,15.5
				c-13.255,0-24-6.94-24-15.5c0-8.56,10.745-15.5,24-15.5C-182.398-287.426-171.653-280.487-171.653-271.927z"/>
		</g>
	</g>
	<g transform="matrix(0.8671492239973475, 0, 0, 0.8671492239973475, 752.4461885362989, 485.38097913474587)">
		<g>
			<path fill="#CC3300" d="M-171.653-271.927c0,8.561-10.745,15.5-24,15.5c-13.255,0-24-6.94-24-15.5c0-8.56,10.745-15.5,24-15.5
				C-182.398-287.426-171.653-280.487-171.653-271.927z"/>
		</g>
	</g>
	<g transform="matrix(0.8671492239973475, 0, 0, 0.8671492239973475, 569.2916653147072, 254.15050996943927)">
		<text transform="matrix(1.1532 0 0 1.1532 -8.697510e-004 -3.051758e-004)" font-family="'ArialMT'" font-size="12.1401">HIP1</text>
	</g>
	<g transform="matrix(0.8671492239973475, 0, 0, 0.8671492239973475, 752.4461885362989, 485.38097913474587)">
		<g>
			<path fill="none" stroke="#000000" stroke-width="4" stroke-miterlimit="10" d="M-314.186,65.444
				c0,8.561-17.908,15.501-40.001,15.501c-22.091,0-40-6.939-40-15.501c0-8.56,17.908-15.5,40-15.5
				C-332.095,49.944-314.186,56.884-314.186,65.444z"/>
		</g>
	</g>
	<g transform="matrix(0.8671492239973475, 0, 0, 0.8671492239973475, 752.4461885362989, 485.38097913474587)">
		<g>
			<path fill="#0099FF" d="M-314.186,65.444c0,8.561-17.908,15.501-40.001,15.501c-22.091,0-40-6.939-40-15.501
				c0-8.56,17.908-15.5,40-15.5C-332.095,49.944-314.186,56.884-314.186,65.444z"/>
		</g>
	</g>
	<g transform="matrix(0.8671492239973475, 0, 0, 0.8671492239973475, 415.96841973396926, 546.701578882241)">
		<text transform="matrix(1.1532 0 0 1.1532 -8.163452e-004 4.577637e-004)" font-family="'ArialMT'" font-size="12.1401">HIST1H1C</text>
	</g>
	<g transform="matrix(0.8671492239973475, 0, 0, 0.8671492239973475, 752.4461885362989, 485.38097913474587)">
		<g>
			<path fill="none" stroke="#000000" stroke-width="4" stroke-miterlimit="10" d="M-382.58-198.533c0,8.561-10.746,15.5-24,15.5
				c-13.255,0-24-6.94-24-15.5c0-8.56,10.745-15.5,24-15.5C-393.326-214.033-382.58-207.093-382.58-198.533z"/>
		</g>
	</g>
	<g transform="matrix(0.8671492239973475, 0, 0, 0.8671492239973475, 752.4461885362989, 485.38097913474587)">
		<g>
			<path fill="#0099FF" d="M-382.58-198.533c0,8.561-10.746,15.5-24,15.5c-13.255,0-24-6.94-24-15.5c0-8.56,10.745-15.5,24-15.5
				C-393.326-214.033-382.58-207.093-382.58-198.533z"/>
		</g>
	</g>
	<g transform="matrix(0.8671492239973475, 0, 0, 0.8671492239973475, 383.68582068905994, 317.7936210365234)">
		<text transform="matrix(1.1532 0 0 1.1532 -3.967285e-004 -3.051758e-004)" font-family="'ArialMT'" font-size="12.1401">GPS2</text>
	</g>
	<g transform="matrix(0.8671492239973475, 0, 0, 0.8671492239973475, 752.4461885362989, 485.38097913474587)">
		<g>
			<path fill="none" stroke="#000000" stroke-width="4" stroke-miterlimit="10" d="M-210.978-153.608c0,8.56-16.118,15.5-36,15.5
				c-19.882,0-35.999-6.94-35.999-15.5c0-8.561,16.118-15.5,35.999-15.5C-227.096-169.109-210.978-162.169-210.978-153.608z"/>
		</g>
	</g>
	<g transform="matrix(0.8671492239973475, 0, 0, 0.8671492239973475, 752.4461885362989, 485.38097913474587)">
		<g>
			<path fill="#CC3300" d="M-210.978-153.608c0,8.56-16.118,15.5-36,15.5c-19.882,0-35.999-6.94-35.999-15.5
				c0-8.561,16.118-15.5,35.999-15.5C-227.096-169.109-210.978-162.169-210.978-153.608z"/>
		</g>
	</g>
	<g transform="matrix(0.8671492239973475, 0, 0, 0.8671492239973475, 509.9447112795026, 356.7499056215208)">
		<text transform="matrix(1.1532 0 0 1.1532 -5.111694e-004 -6.103516e-005)" font-family="'ArialMT'" font-size="12.1401">GATAD2A</text>
	</g>
	<g transform="matrix(0.8671492239973475, 0, 0, 0.8671492239973475, 752.4461885362989, 485.38097913474587)">
		<g>
			<path fill="none" stroke="#000000" stroke-width="4" stroke-miterlimit="10" d="M-409.183-271.927
				c0,8.561-14.326,15.5-31.999,15.5s-32-6.94-32-15.5c0-8.56,14.327-15.5,32-15.5S-409.183-280.487-409.183-271.927z"/>
		</g>
	</g>
	<g transform="matrix(0.8671492239973475, 0, 0, 0.8671492239973475, 752.4461885362989, 485.38097913474587)">
		<g>
			<path fill="#CC3300" d="M-409.183-271.927c0,8.561-14.326,15.5-31.999,15.5s-32-6.94-32-15.5c0-8.56,14.327-15.5,32-15.5
				S-409.183-280.487-409.183-271.927z"/>
		</g>
	</g>
	<g transform="matrix(0.8671492239973475, 0, 0, 0.8671492239973475, 346.5971963231246, 254.15050996943927)">
		<text transform="matrix(1.1532 0 0 1.1532 4.425049e-004 -2.441406e-004)" font-family="'ArialMT'" font-size="12.1401">TAPBPL</text>
	</g>
	<g transform="matrix(0.8671492239973475, 0, 0, 0.8671492239973475, 752.4461885362989, 485.38097913474587)">
		<g>
			<path fill="none" stroke="#000000" stroke-width="4" stroke-miterlimit="10" d="M-270.639,117.95l10,13.424h20l10-13.424
				l-10-13.423h-20L-270.639,117.95z"/>
		</g>
	</g>
	<g transform="matrix(0.8671492239973475, 0, 0, 0.8671492239973475, 752.4461885362989, 485.38097913474587)">
		<g>
			<path fill="#FFFFFF" d="M-270.639,117.95l10,13.424h20l10-13.424l-10-13.423h-20L-270.639,117.95z"/>
		</g>
	</g>
	<g transform="matrix(0.8671492239973475, 0, 0, 0.8671492239973475, 528.0211524212021, 592.2318617781152)">
		<text transform="matrix(1.1532 0 0 1.1532 2.479553e-004 -6.103516e-004)" font-family="'ArialMT'" font-size="12.1401">Vif</text>
	</g>
	<g transform="matrix(0.8671492239973475, 0, 0, 0.8671492239973475, 752.4461885362989, 485.38097913474587)">
		<g>
			<path fill="none" stroke="#000000" stroke-width="4" stroke-miterlimit="10" d="M-290.417-394.691c0,8.56-12.537,15.5-28,15.5
				c-15.465,0-28-6.94-28-15.5c0-8.561,12.535-15.5,28-15.5C-302.954-410.191-290.417-403.252-290.417-394.691z"/>
		</g>
	</g>
	<g transform="matrix(0.8671492239973475, 0, 0, 0.8671492239973475, 752.4461885362989, 485.38097913474587)">
		<g>
			<path fill="#0099FF" d="M-290.417-394.691c0,8.56-12.537,15.5-28,15.5c-15.465,0-28-6.94-28-15.5c0-8.561,12.535-15.5,28-15.5
				C-302.954-410.191-290.417-403.252-290.417-394.691z"/>
		</g>
	</g>
	<g transform="matrix(0.8671492239973475, 0, 0, 0.8671492239973475, 455.08280927010105, 147.6951609526714)">
		<text transform="matrix(1.1532 0 0 1.1532 1.373291e-004 6.103516e-005)" font-family="'ArialMT'" font-size="12.1401">WDR12</text>
	</g>
	<g transform="matrix(0.8671492239973475, 0, 0, 0.8671492239973475, 752.4461885362989, 485.38097913474587)">
		<g>
			<path fill="none" stroke="#000000" stroke-width="4" stroke-miterlimit="10" d="M218.23-262.601c0,8.56-16.118,15.5-36,15.5
				c-19.882,0-35.999-6.94-35.999-15.5c0-8.561,16.118-15.5,35.999-15.5C202.113-278.101,218.23-271.162,218.23-262.601z"/>
		</g>
	</g>
	<g transform="matrix(0.8671492239973475, 0, 0, 0.8671492239973475, 752.4461885362989, 485.38097913474587)">
		<g>
			<path fill="#CC3300" d="M218.23-262.601c0,8.56-16.118,15.5-36,15.5c-19.882,0-35.999-6.94-35.999-15.5
				c0-8.561,16.118-15.5,35.999-15.5C202.113-278.101,218.23-271.162,218.23-262.601z"/>
		</g>
	</g>
	<g transform="matrix(0.8671492239973475, 0, 0, 0.8671492239973475, 888.8722635226512, 262.2372427977101)">
		<text transform="matrix(1.1532 0 0 1.1532 -2.441406e-004 -6.103516e-005)" font-family="'ArialMT'" font-size="12.1401">C6orf89</text>
	</g>
	<g transform="matrix(0.8671492239973475, 0, 0, 0.8671492239973475, 752.4461885362989, 485.38097913474587)">
		<g>
			<path fill="none" stroke="#000000" stroke-width="4" stroke-miterlimit="10" d="M-346.417-271.927l14,13.423h28l14.001-13.423
				l-14.001-13.423h-28L-346.417-271.927z"/>
		</g>
	</g>
	<g transform="matrix(0.8671492239973475, 0, 0, 0.8671492239973475, 752.4461885362989, 485.38097913474587)">
		<g>
			<path fill="#FFFFFF" d="M-346.417-271.927l14,13.423h28l14.001-13.423l-14.001-13.423h-28L-346.417-271.927z"/>
		</g>
	</g>
	<g transform="matrix(0.8671492239973475, 0, 0, 0.8671492239973475, 459.45158158123616, 254.15050996943927)">
		<text transform="matrix(1.1532 0 0 1.1532 -5.035400e-004 -2.441406e-004)" font-family="'ArialMT'" font-size="12.1401">gp120</text>
	</g>
	<g transform="matrix(0.8671492239973475, 0, 0, 0.8671492239973475, 752.4461885362989, 485.38097913474587)">
		<g>
			<path fill="none" stroke="#000000" stroke-width="4" stroke-miterlimit="10" d="M174.492-313.834l9.999,13.423h20.001
				l9.999-13.423l-9.999-13.423h-20.001L174.492-313.834z"/>
		</g>
	</g>
	<g transform="matrix(0.8671492239973475, 0, 0, 0.8671492239973475, 752.4461885362989, 485.38097913474587)">
		<g>
			<path fill="#FFFFFF" d="M174.492-313.834l9.999,13.423h20.001l9.999-13.423l-9.999-13.423h-20.001L174.492-313.834z"/>
		</g>
	</g>
	<g transform="matrix(0.8671492239973475, 0, 0, 0.8671492239973475, 910.299169415079, 217.81066451259218)">
		<text transform="matrix(1.1532 0 0 1.1532 -4.577637e-004 -3.051758e-004)" font-family="'ArialMT'" font-size="12.1401">Vpu</text>
	</g>
	<g transform="matrix(0.8671492239973475, 0, 0, 0.8671492239973475, 752.4461885362989, 485.38097913474587)">
		<g>
			<path fill="none" stroke="#000000" stroke-width="4" stroke-miterlimit="10" d="M428.169-162.539c0,8.561-10.745,15.5-24,15.5
				c-13.254,0-24-6.94-24-15.5c0-8.56,10.746-15.5,24-15.5C417.424-178.038,428.169-171.099,428.169-162.539z"/>
		</g>
	</g>
	<g transform="matrix(0.8671492239973475, 0, 0, 0.8671492239973475, 752.4461885362989, 485.38097913474587)">
		<g>
			<path fill="#0099FF" d="M428.169-162.539c0,8.561-10.745,15.5-24,15.5c-13.254,0-24-6.94-24-15.5c0-8.56,10.746-15.5,24-15.5
				C417.424-178.038,428.169-171.099,428.169-162.539z"/>
		</g>
	</g>
	<g transform="matrix(0.8671492239973475, 0, 0, 0.8671492239973475, 1086.7264983157315, 349.00654726700407)">
		<text transform="matrix(1.1532 0 0 1.1532 6.103516e-005 -3.662109e-004)" font-family="'ArialMT'" font-size="12.1401">BOP1</text>
	</g>
	<g transform="matrix(0.8671492239973475, 0, 0, 0.8671492239973475, 752.4461885362989, 485.38097913474587)">
		<g>
			<path fill="none" stroke="#000000" stroke-width="4" stroke-miterlimit="10" d="M527.23-173.06c0,8.561-16.118,15.5-35.999,15.5
				c-19.883,0-36-6.94-36-15.5c0-8.56,16.118-15.5,36-15.5C511.112-188.56,527.23-181.62,527.23-173.06z"/>
		</g>
	</g>
	<g transform="matrix(0.8671492239973475, 0, 0, 0.8671492239973475, 752.4461885362989, 485.38097913474587)">
		<g>
			<path fill="#CC3300" d="M527.23-173.06c0,8.561-16.118,15.5-35.999,15.5c-19.883,0-36-6.94-36-15.5c0-8.56,16.118-15.5,36-15.5
				C511.112-188.56,527.23-181.62,527.23-173.06z"/>
		</g>
	</g>
	<g transform="matrix(0.8671492239973475, 0, 0, 0.8671492239973475, 1152.4344343752357, 339.88285025592256)">
		<text transform="matrix(1.1532 0 0 1.1532 6.103516e-005 -1.831055e-004)" font-family="'ArialMT'" font-size="12.1401">TP53BP1</text>
	</g>
	<g transform="matrix(0.8671492239973475, 0, 0, 0.8671492239973475, 752.4461885362989, 485.38097913474587)">
		<g>
			<path fill="none" stroke="#000000" stroke-width="4" stroke-miterlimit="10" d="M351.377-355.222c0,8.561-17.908,15.5-40,15.5
				c-22.091,0-40-6.94-40-15.5c0-8.56,17.908-15.5,40-15.5C333.469-370.722,351.377-363.782,351.377-355.222z"/>
		</g>
	</g>
	<g transform="matrix(0.8671492239973475, 0, 0, 0.8671492239973475, 752.4461885362989, 485.38097913474587)">
		<g>
			<path fill="#0099FF" d="M351.377-355.222c0,8.561-17.908,15.5-40,15.5c-22.091,0-40-6.94-40-15.5c0-8.56,17.908-15.5,40-15.5
				C333.469-370.722,351.377-363.782,351.377-355.222z"/>
		</g>
	</g>
	<g transform="matrix(0.8671492239973475, 0, 0, 0.8671492239973475, 993.4465618934972, 181.92111846967143)">
		<text transform="matrix(1.1532 0 0 1.1532 -3.662109e-004 2.441406e-004)" font-family="'ArialMT'" font-size="12.1401">HIST2H4A</text>
	</g>
	<g transform="matrix(0.8671492239973475, 0, 0, 0.8671492239973475, 752.4461885362989, 485.38097913474587)">
		<g>
			<path fill="none" stroke="#000000" stroke-width="4" stroke-miterlimit="10" d="M432.169-429.221c0,8.561-12.535,15.5-28,15.5
				c-15.464,0-28-6.94-28-15.5c0-8.56,12.537-15.5,28-15.5C419.634-444.72,432.169-437.781,432.169-429.221z"/>
		</g>
	</g>
	<g transform="matrix(0.8671492239973475, 0, 0, 0.8671492239973475, 752.4461885362989, 485.38097913474587)">
		<g>
			<path fill="#0099FF" d="M432.169-429.221c0,8.561-12.535,15.5-28,15.5c-15.464,0-28-6.94-28-15.5c0-8.56,12.537-15.5,28-15.5
				C419.634-444.72,432.169-437.781,432.169-429.221z"/>
		</g>
	</g>
	<g transform="matrix(0.8671492239973475, 0, 0, 0.8671492239973475, 1083.3565565804802, 117.7531608889295)">
		<text transform="matrix(1.1532 0 0 1.1532 -1.831055e-004 1.831055e-004)" font-family="'ArialMT'" font-size="12.1401">H2AFV</text>
	</g>
	<g transform="matrix(0.8671492239973475, 0, 0, 0.8671492239973475, 752.4461885362989, 485.38097913474587)">
		<g>
			<path fill="none" stroke="#000000" stroke-width="4" stroke-miterlimit="10" d="M551.878-402.811c0,8.561-14.326,15.5-32,15.5
				c-17.672,0-31.999-6.939-31.999-15.5c0-8.56,14.327-15.5,31.999-15.5C537.552-418.311,551.878-411.371,551.878-402.811z"/>
		</g>
	</g>
	<g transform="matrix(0.8671492239973475, 0, 0, 0.8671492239973475, 752.4461885362989, 485.38097913474587)">
		<g>
			<path fill="#0099FF" d="M551.878-402.811c0,8.561-14.326,15.5-32,15.5c-17.672,0-31.999-6.939-31.999-15.5
				c0-8.56,14.327-15.5,31.999-15.5C537.552-418.311,551.878-411.371,551.878-402.811z"/>
		</g>
	</g>
	<g transform="matrix(0.8671492239973475, 0, 0, 0.8671492239973475, 1180.3178018573979, 140.65444275382376)">
		<text transform="matrix(1.1532 0 0 1.1532 -4.882813e-004 -3.051758e-004)" font-family="'ArialMT'" font-size="12.1401">H2AFY2</text>
	</g>
	<g transform="matrix(0.8671492239973475, 0, 0, 0.8671492239973475, 752.4461885362989, 485.38097913474587)">
		<g>
			<path fill="none" stroke="#000000" stroke-width="4" stroke-miterlimit="10" d="M595.374-295.879c0,8.56-10.746,15.5-24.001,15.5
				c-13.254,0-24-6.94-24-15.5c0-8.561,10.746-15.5,24-15.5C584.628-311.38,595.374-304.44,595.374-295.879z"/>
		</g>
	</g>
	<g transform="matrix(0.8671492239973475, 0, 0, 0.8671492239973475, 752.4461885362989, 485.38097913474587)">
		<g>
			<path fill="#CC3300" d="M595.374-295.879c0,8.56-10.746,15.5-24.001,15.5c-13.254,0-24-6.94-24-15.5c0-8.561,10.746-15.5,24-15.5
				C584.628-311.38,595.374-304.44,595.374-295.879z"/>
		</g>
	</g>
	<g transform="matrix(0.8671492239973475, 0, 0, 0.8671492239973475, 1231.0479368184242, 233.3798408463197)">
		<text transform="matrix(1.1532 0 0 1.1532 -3.051758e-004 -6.103516e-005)" font-family="'ArialMT'" font-size="12.1401">NPM1</text>
	</g>
	<g transform="matrix(0.8671492239973475, 0, 0, 0.8671492239973475, 752.4461885362989, 485.38097913474587)">
		<g>
			<path fill="none" stroke="#000000" stroke-width="4" stroke-miterlimit="10" d="M214.685-124.234c0,8.561-12.535,15.5-28,15.5
				c-15.464,0-27.999-6.939-27.999-15.5c0-8.561,12.535-15.5,27.999-15.5C202.15-139.734,214.685-132.794,214.685-124.234z"/>
		</g>
	</g>
	<g transform="matrix(0.8671492239973475, 0, 0, 0.8671492239973475, 752.4461885362989, 485.38097913474587)">
		<g>
			<path fill="#0099FF" d="M214.685-124.234c0,8.561-12.535,15.5-28,15.5c-15.464,0-27.999-6.939-27.999-15.5
				c0-8.561,12.535-15.5,27.999-15.5C202.15-139.734,214.685-132.794,214.685-124.234z"/>
		</g>
	</g>
	<g transform="matrix(0.8671492239973475, 0, 0, 0.8671492239973475, 896.4524359735492, 382.22214944350094)">
		<text transform="matrix(1.1532 0 0 1.1532 -5.187988e-004 -9.155273e-005)" font-family="'ArialMT'" font-size="12.1401">ACIN1</text>
	</g>
	<g transform="matrix(0.8671492239973475, 0, 0, 0.8671492239973475, 752.4461885362989, 485.38097913474587)">
		<g>
			<path fill="none" stroke="#000000" stroke-width="4" stroke-miterlimit="10" d="M246.231-82.601c0,8.56-8.954,15.5-20,15.5
				c-11.047,0-20.001-6.939-20.001-15.5s8.954-15.501,20.001-15.501C237.276-98.102,246.231-91.161,246.231-82.601z"/>
		</g>
	</g>
	<g transform="matrix(0.8671492239973475, 0, 0, 0.8671492239973475, 752.4461885362989, 485.38097913474587)">
		<g>
			<path fill="#0099FF" d="M246.231-82.601c0,8.56-8.954,15.5-20,15.5c-11.047,0-20.001-6.939-20.001-15.5
				s8.954-15.501,20.001-15.501C237.276-98.102,246.231-91.161,246.231-82.601z"/>
		</g>
	</g>
	<g transform="matrix(0.8671492239973475, 0, 0, 0.8671492239973475, 935.8058684460937, 418.3241097330563)">
		<text transform="matrix(1.1532 0 0 1.1532 -3.051758e-004 3.051758e-005)" font-family="'ArialMT'" font-size="12.1401">SCD</text>
	</g>
	<g transform="matrix(0.8671492239973475, 0, 0, 0.8671492239973475, 752.4461885362989, 485.38097913474587)">
		<g>
			<path fill="none" stroke="#000000" stroke-width="4" stroke-miterlimit="10" d="M311.408,26.036c0,8.56-12.537,15.5-28,15.5
				c-15.465,0-28-6.94-28-15.5s12.535-15.5,28-15.5C298.871,10.536,311.408,17.476,311.408,26.036z"/>
		</g>
	</g>
	<g transform="matrix(0.8671492239973475, 0, 0, 0.8671492239973475, 752.4461885362989, 485.38097913474587)">
		<g>
			<path fill="#0099FF" d="M311.408,26.036c0,8.56-12.537,15.5-28,15.5c-15.465,0-28-6.94-28-15.5s12.535-15.5,28-15.5
				C298.871,10.536,311.408,17.476,311.408,26.036z"/>
		</g>
	</g>
	<g transform="matrix(0.8671492239973475, 0, 0, 0.8671492239973475, 977.2897151857064, 512.5283792501193)">
		<text transform="matrix(1.1532 0 0 1.1532 -9.155273e-004 -1.831055e-004)" font-family="'ArialMT'" font-size="12.1401">CEBPD</text>
	</g>
	<g transform="matrix(0.8671492239973475, 0, 0, 0.8671492239973475, 752.4461885362989, 485.38097913474587)">
		<g>
			<path fill="none" stroke="#000000" stroke-width="4" stroke-miterlimit="10" d="M574.327-224.214c0,8.561-12.535,15.5-28,15.5
				c-15.464,0-28-6.94-28-15.5c0-8.56,12.537-15.5,28-15.5C561.792-239.713,574.327-232.774,574.327-224.214z"/>
		</g>
	</g>
	<g transform="matrix(0.8671492239973475, 0, 0, 0.8671492239973475, 752.4461885362989, 485.38097913474587)">
		<g>
			<path fill="#0099FF" d="M574.327-224.214c0,8.561-12.535,15.5-28,15.5c-15.464,0-28-6.94-28-15.5c0-8.56,12.537-15.5,28-15.5
				C561.792-239.713,574.327-232.774,574.327-224.214z"/>
		</g>
	</g>
	<g transform="matrix(0.8671492239973475, 0, 0, 0.8671492239973475, 1205.9559705339452, 295.52510299899114)">
		<text transform="matrix(1.1532 0 0 1.1532 0 -3.662109e-004)" font-family="'ArialMT'" font-size="12.1401">MFAP1</text>
	</g>
	<g transform="matrix(0.8671492239973475, 0, 0, 0.8671492239973475, 752.4461885362989, 485.38097913474587)">
		<g>
			<path fill="none" stroke="#000000" stroke-width="4" stroke-miterlimit="10" d="M242.804,295.399c0,8.56-8.954,15.5-20,15.5
				s-20-6.939-20-15.5s8.954-15.5,20-15.5S242.804,286.839,242.804,295.399z"/>
		</g>
	</g>
	<g transform="matrix(0.8671492239973475, 0, 0, 0.8671492239973475, 752.4461885362989, 485.38097913474587)">
		<g>
			<path fill="#0099FF" d="M242.804,295.399c0,8.56-8.954,15.5-20,15.5s-20-6.939-20-15.5s8.954-15.5,20-15.5
				S242.804,286.839,242.804,295.399z"/>
		</g>
	</g>
	<g transform="matrix(0.8671492239973475, 0, 0, 0.8671492239973475, 932.4967393608894, 746.10650978823)">
		<text transform="matrix(1.1532 0 0 1.1532 -8.239746e-004 -2.212524e-004)" font-family="'ArialMT'" font-size="12.1401">MVK</text>
	</g>
	<g transform="matrix(0.8671492239973475, 0, 0, 0.8671492239973475, 752.4461885362989, 485.38097913474587)">
		<g>
			<path fill="none" stroke="#000000" stroke-width="4" stroke-miterlimit="10" d="M414.603-295.879l10,13.423h20l10-13.423
				l-10-13.423h-20L414.603-295.879z"/>
		</g>
	</g>
	<g transform="matrix(0.8671492239973475, 0, 0, 0.8671492239973475, 752.4461885362989, 485.38097913474587)">
		<g>
			<path fill="#FFFFFF" d="M414.603-295.879l10,13.423h20l10-13.423l-10-13.423h-20L414.603-295.879z"/>
		</g>
	</g>
	<g transform="matrix(0.8671492239973475, 0, 0, 0.8671492239973475, 1120.5420895297368, 233.3798408463197)">
		<text transform="matrix(1.1532 0 0 1.1532 -1.220703e-004 -6.103516e-005)" font-family="'ArialMT'" font-size="12.1401">Tat</text>
	</g>
	<g transform="matrix(0.8671492239973475, 0, 0, 0.8671492239973475, 752.4461885362989, 485.38097913474587)">
		<g>
			<path fill="none" stroke="#000000" stroke-width="4" stroke-miterlimit="10" d="M66.657,401.717c0,8.56-12.537,15.5-28,15.5
				c-15.465,0-28-6.94-28-15.5c0-8.561,12.535-15.501,28-15.501C54.121,386.216,66.657,393.156,66.657,401.717z"/>
		</g>
	</g>
	<g transform="matrix(0.8671492239973475, 0, 0, 0.8671492239973475, 752.4461885362989, 485.38097913474587)">
		<g>
			<path fill="#0099FF" d="M66.657,401.717c0,8.56-12.537,15.5-28,15.5c-15.465,0-28-6.94-28-15.5c0-8.561,12.535-15.501,28-15.501
				C54.121,386.216,66.657,393.156,66.657,401.717z"/>
		</g>
	</g>
	<g transform="matrix(0.8671492239973475, 0, 0, 0.8671492239973475, 765.3891872496143, 838.2995457915184)">
		<text transform="matrix(1.1532 0 0 1.1532 -5.798340e-004 -9.498596e-004)" font-family="'ArialMT'" font-size="12.1401">PSMB4</text>
	</g>
	<g transform="matrix(0.8671492239973475, 0, 0, 0.8671492239973475, 752.4461885362989, 485.38097913474587)">
		<g>
			<path fill="none" stroke="#000000" stroke-width="4" stroke-miterlimit="10" d="M316.252,178.367c0,8.56-14.327,15.5-32,15.5
				s-32-6.939-32-15.5c0-8.56,14.327-15.5,32-15.5S316.252,169.807,316.252,178.367z"/>
		</g>
	</g>
	<g transform="matrix(0.8671492239973475, 0, 0, 0.8671492239973475, 752.4461885362989, 485.38097913474587)">
		<g>
			<path fill="#0099FF" d="M316.252,178.367c0,8.56-14.327,15.5-32,15.5s-32-6.939-32-15.5c0-8.56,14.327-15.5,32-15.5
				S316.252,169.807,316.252,178.367z"/>
		</g>
	</g>
	<g transform="matrix(0.8671492239973475, 0, 0, 0.8671492239973475, 974.9861912796982, 644.6221053418764)">
		<text transform="matrix(1.1532 0 0 1.1532 1.220703e-004 -2.136230e-004)" font-family="'ArialMT'" font-size="12.1401">THRAP3</text>
	</g>
	<g transform="matrix(0.8671492239973475, 0, 0, 0.8671492239973475, 752.4461885362989, 485.38097913474587)">
		<g>
			<path fill="#CC3300" stroke="#000000" stroke-width="2" stroke-miterlimit="10" d="M473.615,115.399
				c0,8.561-10.745,15.501-24,15.501c-13.255,0-24-6.939-24-15.501c0-8.56,10.745-15.5,24-15.5
				C462.87,99.899,473.615,106.839,473.615,115.399z"/>
		</g>
	</g>
	<g transform="matrix(0.8671492239973475, 0, 0, 0.8671492239973475, 752.4461885362989, 485.38097913474587)">
		<g>
			<path fill="#FFFFFF" stroke="#000000" stroke-width="2" stroke-miterlimit="10" d="M425.615,69.271l11.999,13.424h24l12-13.424
				l-12-13.423h-24L425.615,69.271z"/>
		</g>
	</g>
	<g transform="matrix(0.8671492239973475, 0, 0, 0.8671492239973475, 752.4461885362989, 485.38097913474587)">
		<g>
			<path fill="#0099FF" stroke="#000000" stroke-width="2" stroke-miterlimit="10" d="M473.615,165.796
				c0,8.56-10.746,15.5-24.001,15.5c-13.255,0-23.999-6.939-23.999-15.5s10.744-15.5,23.999-15.5
				C462.869,150.297,473.615,157.236,473.615,165.796z"/>
		</g>
	</g>
</g>
<text transform="matrix(1 0 0 1 1168.918 548.4423)" font-family="'MyriadPro-Regular'" font-size="14">HIV-1 protein</text>
<text transform="matrix(1 0 0 1 1168.918 580.7694)"><tspan x="0" y="0" font-family="'MyriadPro-Regular'" font-size="14">Up-regulated</tspan><tspan x="0" y="16.8" font-family="'MyriadPro-Regular'" font-size="14">Human protein</tspan></text>
<text transform="matrix(1 0 0 1 1168.8574 627.702)"><tspan x="0" y="0" font-family="'MyriadPro-Regular'" font-size="14">Down-regulated</tspan><tspan x="0" y="16.8" font-family="'MyriadPro-Regular'" font-size="14">Human protein</tspan></text>
</svg>
